<svg xmlns="http://www.w3.org/2000/svg" viewBox="0 0 900 560" width="900" height="560">
  <rect width="900" height="560" fill="#0f172a" rx="12"/>

  <text x="450" y="30" text-anchor="middle" fill="#f1f5f9" font-family="Arial,sans-serif" font-size="15" font-weight="bold">mcp-procurement v2.0 - AI-Powered Procurement Engine</text>

  <rect x="20" y="48" width="110" height="50" fill="#1e293b" stroke="#6366f1" stroke-width="2" rx="8"/>
  <text x="75" y="70" text-anchor="middle" fill="#e2e8f0" font-family="Arial,sans-serif" font-size="10" font-weight="bold">AI Agent</text>
  <text x="75" y="85" text-anchor="middle" fill="#94a3b8" font-family="Arial,sans-serif" font-size="8">MCP Client</text>

  <line x1="130" y1="73" x2="165" y2="73" stroke="#6366f1" stroke-width="2"/>
  <polygon points="165,69 175,73 165,77" fill="#6366f1"/>

  <rect x="180" y="43" width="700" height="60" fill="#1e293b" stroke="#8b5cf6" stroke-width="2" rx="8"/>
  <text x="530" y="62" text-anchor="middle" fill="#e2e8f0" font-family="Arial,sans-serif" font-size="11" font-weight="bold">Tool Router - 37 Tools</text>

  <rect x="195" y="72" width="55" height="15" fill="#4c1d95" rx="3"/>
  <text x="222" y="83" text-anchor="middle" fill="#c4b5fd" font-family="Arial,sans-serif" font-size="7">Suppliers</text>
  <rect x="255" y="72" width="35" height="15" fill="#4c1d95" rx="3"/>
  <text x="272" y="83" text-anchor="middle" fill="#c4b5fd" font-family="Arial,sans-serif" font-size="7">POs</text>
  <rect x="295" y="72" width="40" height="15" fill="#4c1d95" rx="3"/>
  <text x="315" y="83" text-anchor="middle" fill="#c4b5fd" font-family="Arial,sans-serif" font-size="7">RFQs</text>
  <rect x="340" y="72" width="55" height="15" fill="#4c1d95" rx="3"/>
  <text x="367" y="83" text-anchor="middle" fill="#c4b5fd" font-family="Arial,sans-serif" font-size="7">Contracts</text>
  <rect x="400" y="72" width="50" height="15" fill="#4c1d95" rx="3"/>
  <text x="425" y="83" text-anchor="middle" fill="#c4b5fd" font-family="Arial,sans-serif" font-size="7">3-Way</text>
  <rect x="455" y="72" width="50" height="15" fill="#4c1d95" rx="3"/>
  <text x="480" y="83" text-anchor="middle" fill="#c4b5fd" font-family="Arial,sans-serif" font-size="7">Budget</text>
  <rect x="510" y="72" width="55" height="15" fill="#4c1d95" rx="3"/>
  <text x="537" y="83" text-anchor="middle" fill="#c4b5fd" font-family="Arial,sans-serif" font-size="7">Diversity</text>
  <rect x="570" y="72" width="55" height="15" fill="#4c1d95" rx="3"/>
  <text x="597" y="83" text-anchor="middle" fill="#c4b5fd" font-family="Arial,sans-serif" font-size="7">Catalogs</text>
  <rect x="630" y="72" width="50" height="15" fill="#4c1d95" rx="3"/>
  <text x="655" y="83" text-anchor="middle" fill="#c4b5fd" font-family="Arial,sans-serif" font-size="7">Receive</text>
  <rect x="685" y="72" width="75" height="15" fill="#b45309" rx="3"/>
  <text x="722" y="83" text-anchor="middle" fill="#fef3c7" font-family="Arial,sans-serif" font-size="7" font-weight="bold">Intelligence</text>
  <rect x="765" y="72" width="55" height="15" fill="#4c1d95" rx="3"/>
  <text x="792" y="83" text-anchor="middle" fill="#c4b5fd" font-family="Arial,sans-serif" font-size="7">Analytics</text>

  <rect x="20" y="120" width="860" height="70" fill="#1e293b" stroke="#10b981" stroke-width="2" rx="8"/>
  <text x="450" y="138" text-anchor="middle" fill="#e2e8f0" font-family="Arial,sans-serif" font-size="10" font-weight="bold">Source-to-Pay Lifecycle</text>

  <rect x="35" y="148" width="80" height="26" fill="#064e3b" stroke="#10b981" stroke-width="1" rx="4"/>
  <text x="75" y="165" text-anchor="middle" fill="#6ee7b7" font-family="Arial,sans-serif" font-size="8">Sourcing</text>
  <rect x="130" y="148" width="80" height="26" fill="#064e3b" stroke="#10b981" stroke-width="1" rx="4"/>
  <text x="170" y="165" text-anchor="middle" fill="#6ee7b7" font-family="Arial,sans-serif" font-size="8">RFQ/Bid</text>
  <rect x="225" y="148" width="80" height="26" fill="#064e3b" stroke="#10b981" stroke-width="1" rx="4"/>
  <text x="265" y="165" text-anchor="middle" fill="#6ee7b7" font-family="Arial,sans-serif" font-size="8">Contract</text>
  <rect x="320" y="148" width="80" height="26" fill="#064e3b" stroke="#10b981" stroke-width="1" rx="4"/>
  <text x="360" y="165" text-anchor="middle" fill="#6ee7b7" font-family="Arial,sans-serif" font-size="8">Purchase</text>
  <rect x="415" y="148" width="80" height="26" fill="#064e3b" stroke="#10b981" stroke-width="1" rx="4"/>
  <text x="455" y="165" text-anchor="middle" fill="#6ee7b7" font-family="Arial,sans-serif" font-size="8">Approve</text>
  <rect x="510" y="148" width="80" height="26" fill="#064e3b" stroke="#10b981" stroke-width="1" rx="4"/>
  <text x="550" y="165" text-anchor="middle" fill="#6ee7b7" font-family="Arial,sans-serif" font-size="8">Receive</text>
  <rect x="605" y="148" width="80" height="26" fill="#064e3b" stroke="#10b981" stroke-width="1" rx="4"/>
  <text x="645" y="165" text-anchor="middle" fill="#6ee7b7" font-family="Arial,sans-serif" font-size="8">3-Way Match</text>
  <rect x="700" y="148" width="80" height="26" fill="#064e3b" stroke="#10b981" stroke-width="1" rx="4"/>
  <text x="740" y="165" text-anchor="middle" fill="#6ee7b7" font-family="Arial,sans-serif" font-size="8">Pay</text>

  <line x1="115" y1="161" x2="130" y2="161" stroke="#10b981" stroke-width="1.5"/>
  <line x1="210" y1="161" x2="225" y2="161" stroke="#10b981" stroke-width="1.5"/>
  <line x1="305" y1="161" x2="320" y2="161" stroke="#10b981" stroke-width="1.5"/>
  <line x1="400" y1="161" x2="415" y2="161" stroke="#10b981" stroke-width="1.5"/>
  <line x1="495" y1="161" x2="510" y2="161" stroke="#10b981" stroke-width="1.5"/>
  <line x1="590" y1="161" x2="605" y2="161" stroke="#10b981" stroke-width="1.5"/>
  <line x1="685" y1="161" x2="700" y2="161" stroke="#10b981" stroke-width="1.5"/>

  <rect x="20" y="205" width="860" height="155" fill="#1e293b" stroke="#f59e0b" stroke-width="2" rx="8"/>
  <text x="450" y="225" text-anchor="middle" fill="#fbbf24" font-family="Arial,sans-serif" font-size="11" font-weight="bold">AI Intelligence Layer - No Competitor Has This</text>

  <rect x="35" y="240" width="155" height="35" fill="#78350f" stroke="#f59e0b" stroke-width="1" rx="4"/>
  <text x="112" y="255" text-anchor="middle" fill="#fbbf24" font-family="Arial,sans-serif" font-size="8" font-weight="bold">supplier_risk_score</text>
  <text x="112" y="268" text-anchor="middle" fill="#fde68a" font-family="Arial,sans-serif" font-size="7">Multi-factor 0-100 risk</text>

  <rect x="200" y="240" width="155" height="35" fill="#78350f" stroke="#f59e0b" stroke-width="1" rx="4"/>
  <text x="277" y="255" text-anchor="middle" fill="#fbbf24" font-family="Arial,sans-serif" font-size="8" font-weight="bold">price_benchmark</text>
  <text x="277" y="268" text-anchor="middle" fill="#fde68a" font-family="Arial,sans-serif" font-size="7">Quote vs market verdict</text>

  <rect x="365" y="240" width="155" height="35" fill="#78350f" stroke="#f59e0b" stroke-width="1" rx="4"/>
  <text x="442" y="255" text-anchor="middle" fill="#fbbf24" font-family="Arial,sans-serif" font-size="8" font-weight="bold">carbon_footprint</text>
  <text x="442" y="268" text-anchor="middle" fill="#fde68a" font-family="Arial,sans-serif" font-size="7">CO2 per shipment (ESG)</text>

  <rect x="530" y="240" width="155" height="35" fill="#78350f" stroke="#f59e0b" stroke-width="1" rx="4"/>
  <text x="607" y="255" text-anchor="middle" fill="#fbbf24" font-family="Arial,sans-serif" font-size="8" font-weight="bold">supplier_recommend</text>
  <text x="607" y="268" text-anchor="middle" fill="#fde68a" font-family="Arial,sans-serif" font-size="7">AI-ranked suggestions</text>

  <rect x="695" y="240" width="175" height="35" fill="#78350f" stroke="#f59e0b" stroke-width="1" rx="4"/>
  <text x="782" y="255" text-anchor="middle" fill="#fbbf24" font-family="Arial,sans-serif" font-size="8" font-weight="bold">contract_clause_check</text>
  <text x="782" y="268" text-anchor="middle" fill="#fde68a" font-family="Arial,sans-serif" font-size="7">Flag risky clauses</text>

  <rect x="35" y="285" width="155" height="35" fill="#78350f" stroke="#f59e0b" stroke-width="1" rx="4"/>
  <text x="112" y="300" text-anchor="middle" fill="#fbbf24" font-family="Arial,sans-serif" font-size="8" font-weight="bold">demand_forecast</text>
  <text x="112" y="313" text-anchor="middle" fill="#fde68a" font-family="Arial,sans-serif" font-size="7">Predict future spend</text>

  <rect x="200" y="285" width="155" height="35" fill="#78350f" stroke="#f59e0b" stroke-width="1" rx="4"/>
  <text x="277" y="300" text-anchor="middle" fill="#fbbf24" font-family="Arial,sans-serif" font-size="8" font-weight="bold">savings_opportunity</text>
  <text x="277" y="313" text-anchor="middle" fill="#fde68a" font-family="Arial,sans-serif" font-size="7">Find price variances</text>

  <rect x="365" y="285" width="155" height="35" fill="#78350f" stroke="#f59e0b" stroke-width="1" rx="4"/>
  <text x="442" y="300" text-anchor="middle" fill="#fbbf24" font-family="Arial,sans-serif" font-size="8" font-weight="bold">supplier_scorecard</text>
  <text x="442" y="313" text-anchor="middle" fill="#fde68a" font-family="Arial,sans-serif" font-size="7">A/B/C/D performance</text>

  <rect x="530" y="285" width="155" height="35" fill="#78350f" stroke="#f59e0b" stroke-width="1" rx="4"/>
  <text x="607" y="300" text-anchor="middle" fill="#fbbf24" font-family="Arial,sans-serif" font-size="8" font-weight="bold">maverick_spend_detect</text>
  <text x="607" y="313" text-anchor="middle" fill="#fde68a" font-family="Arial,sans-serif" font-size="7">Policy violations</text>

  <rect x="695" y="285" width="175" height="35" fill="#78350f" stroke="#f59e0b" stroke-width="1" rx="4"/>
  <text x="782" y="300" text-anchor="middle" fill="#fbbf24" font-family="Arial,sans-serif" font-size="8" font-weight="bold">negotiation_brief</text>
  <text x="782" y="313" text-anchor="middle" fill="#fde68a" font-family="Arial,sans-serif" font-size="7">BATNA and strategy</text>

  <text x="450" y="348" text-anchor="middle" fill="#94a3b8" font-family="Arial,sans-serif" font-size="8">These 10 tools provide capabilities that SAP Ariba, Coupa, and Oracle do not offer</text>

  <rect x="20" y="375" width="420" height="75" fill="#1e293b" stroke="#06b6d4" stroke-width="2" rx="8"/>
  <text x="230" y="395" text-anchor="middle" fill="#e2e8f0" font-family="Arial,sans-serif" font-size="10" font-weight="bold">Data Store</text>
  <rect x="35" y="405" width="55" height="16" fill="#164e63" rx="3"/>
  <text x="62" y="416" text-anchor="middle" fill="#67e8f9" font-family="Arial,sans-serif" font-size="7">Suppliers</text>
  <rect x="95" y="405" width="35" height="16" fill="#164e63" rx="3"/>
  <text x="112" y="416" text-anchor="middle" fill="#67e8f9" font-family="Arial,sans-serif" font-size="7">POs</text>
  <rect x="135" y="405" width="40" height="16" fill="#164e63" rx="3"/>
  <text x="155" y="416" text-anchor="middle" fill="#67e8f9" font-family="Arial,sans-serif" font-size="7">RFQs</text>
  <rect x="180" y="405" width="55" height="16" fill="#164e63" rx="3"/>
  <text x="207" y="416" text-anchor="middle" fill="#67e8f9" font-family="Arial,sans-serif" font-size="7">Contracts</text>
  <rect x="240" y="405" width="50" height="16" fill="#164e63" rx="3"/>
  <text x="265" y="416" text-anchor="middle" fill="#67e8f9" font-family="Arial,sans-serif" font-size="7">Invoices</text>
  <rect x="295" y="405" width="50" height="16" fill="#164e63" rx="3"/>
  <text x="320" y="416" text-anchor="middle" fill="#67e8f9" font-family="Arial,sans-serif" font-size="7">Budgets</text>
  <rect x="350" y="405" width="50" height="16" fill="#164e63" rx="3"/>
  <text x="375" y="416" text-anchor="middle" fill="#67e8f9" font-family="Arial,sans-serif" font-size="7">Catalogs</text>

  <rect x="460" y="375" width="420" height="75" fill="#1e293b" stroke="#ec4899" stroke-width="2" rx="8"/>
  <text x="670" y="395" text-anchor="middle" fill="#e2e8f0" font-family="Arial,sans-serif" font-size="10" font-weight="bold">Governance</text>
  <text x="480" y="415" fill="#f9a8d4" font-family="Arial,sans-serif" font-size="8">Multi-level approval (Manager, Director, CFO)</text>
  <text x="480" y="430" fill="#f9a8d4" font-family="Arial,sans-serif" font-size="8">Budget enforcement before PO approval</text>
  <text x="480" y="445" fill="#f9a8d4" font-family="Arial,sans-serif" font-size="8">Maverick spend detection, Diversity tracking</text>

  <rect x="20" y="470" width="860" height="75" fill="#1e293b" stroke="#475569" stroke-width="1" rx="8"/>
  <text x="450" y="492" text-anchor="middle" fill="#e2e8f0" font-family="Arial,sans-serif" font-size="10" font-weight="bold">vs Competition</text>
  <text x="130" y="515" text-anchor="middle" fill="#94a3b8" font-family="Arial,sans-serif" font-size="9">SAP Ariba: 150K+ per year</text>
  <text x="320" y="515" text-anchor="middle" fill="#94a3b8" font-family="Arial,sans-serif" font-size="9">Coupa: 100K+ per year</text>
  <text x="500" y="515" text-anchor="middle" fill="#94a3b8" font-family="Arial,sans-serif" font-size="9">Oracle: 200K+ per year</text>
  <text x="720" y="515" text-anchor="middle" fill="#fbbf24" font-family="Arial,sans-serif" font-size="9" font-weight="bold">mcp-procurement: Free, Open Source</text>
  <text x="720" y="532" text-anchor="middle" fill="#fbbf24" font-family="Arial,sans-serif" font-size="8">with AI Intelligence no one else has</text>
</svg>
